<?xml version="1.0" encoding="utf-8"?>
<!-- Generator: Adobe Illustrator 22.1.0, SVG Export Plug-In . SVG Version: 6.00 Build 0)  -->
<svg version="1.1" id="Layer_1" xmlns="http://www.w3.org/2000/svg" xmlns:xlink="http://www.w3.org/1999/xlink" x="0px" y="0px"
	 viewBox="0 0 1019 352.9" style="enable-background:new 0 0 1019 352.9;" xml:space="preserve">
<style type="text/css">
	.st0{stroke:#FFFFFF;stroke-miterlimit:10;}
</style>
<g>
	<path class="st0" d="M141,302.9h-32.5v-31.2h-76v31.2H0v-69h9.6c5.1-14.8,9.2-34.3,12.5-58.5c3.2-24.2,4.9-50.6,4.9-79.3v-5.5
		h104.4v143.1h9.6V302.9z M84.2,233.7V126.4h-14v1.3c0,34.7-3.7,70-11.2,106H84.2z"/>
	<path class="st0" d="M263.2,196.7c0,18.2-0.4,31.1-1.3,38.6c-0.9,7.6-3.5,14.5-8.1,20.7c-4.5,6.3-10.6,11.1-18.3,14.4
		c-7.7,3.4-16.6,5-26.8,5c-9.7,0-18.4-1.6-26.1-4.8c-7.7-3.2-13.9-7.9-18.6-14.3c-4.7-6.3-7.5-13.2-8.4-20.7s-1.3-20.5-1.3-39.1v-31
		c0-18.2,0.4-31.1,1.3-38.6c0.9-7.6,3.5-14.5,8.1-20.7c4.5-6.3,10.6-11.1,18.3-14.4c7.7-3.4,16.6-5,26.8-5c9.7,0,18.4,1.6,26.1,4.8
		c7.7,3.2,13.9,7.9,18.6,14.3c4.7,6.3,7.5,13.2,8.4,20.7c0.9,7.5,1.3,20.5,1.3,39.1V196.7z M216.1,137.2c0-8.4-0.5-13.8-1.4-16.2
		c-0.9-2.3-2.9-3.5-5.8-3.5c-2.5,0-4.3,1-5.6,2.9s-2,7.5-2,16.8v84.5c0,10.5,0.4,17,1.3,19.5c0.9,2.5,2.9,3.7,6,3.7
		c3.2,0,5.3-1.4,6.1-4.2c0.9-2.8,1.3-9.6,1.3-20.2L216.1,137.2L216.1,137.2z"/>
	<path class="st0" d="M362.5,126.8H328v144.9h-47.2V90.6h81.7V126.8z"/>
	<path class="st0" d="M550.1,302.9h-32.5v-31.2h-76v31.2h-32.4v-69h9.6c5.1-14.8,9.2-34.3,12.5-58.5c3.2-24.2,4.9-50.6,4.9-79.3
		v-5.5h104.4v143.1h9.6L550.1,302.9L550.1,302.9z M493.3,233.7V126.4h-14v1.3c0,34.7-3.7,70-11.2,106H493.3z"/>
	<path class="st0" d="M669.9,271.7h-39.4v-82.4L606,271.7h-41.3V90.6h39.4v81.7l26.4-81.7h39.4L669.9,271.7L669.9,271.7z"/>
	<path class="st0" d="M803.6,271.7h-47.2V126.8h-13.8v102.5c0,13.5-1.7,23.2-5.2,29.1c-3.5,5.9-8.8,9.6-15.8,11.1
		c-7.1,1.5-18.4,2.2-33.9,2.2h-7.4v-31.2c5.7,0,9.7-0.7,11.9-2.1c2.2-1.4,3.2-6.3,3.2-14.5V90.6h108.1v181.1H803.6z"/>
	<path class="st0" d="M822.4,90.7h78.5v36.2h-31.4v34.3h29.4v34.4h-29.4v39.8H904v36.2h-81.6V90.7z"/>
	<path class="st0" d="M917.6,90.7H965c12.8,0,22.7,1,29.6,3c6.9,2,12.1,4.9,15.5,8.7c3.5,3.8,5.8,8.4,7,13.8
		c1.2,5.4,1.8,13.8,1.8,25.1v15.8c0,11.6-1.2,20-3.6,25.3c-2.4,5.3-6.8,9.4-13.1,12.2c-6.4,2.8-14.7,4.2-25,4.2h-12.6v72.9h-47.1
		L917.6,90.7L917.6,90.7z M964.6,121.7v46.1c1.3,0.1,2.5,0.1,3.5,0.1c4.3,0,7.3-1.1,9-3.2c1.7-2.1,2.5-6.5,2.5-13.2v-15
		c0-6.2-1-10.2-2.9-12.1C974.8,122.6,970.8,121.7,964.6,121.7z"/>
</g>
</svg>
